<svg xmlns="http://www.w3.org/2000/svg" version="1.1" xmlns:xlink="http://www.w3.org/1999/xlink" xmlns:svgjs="http://svgjs.com/svgjs" width="2560" height="1200" preserveAspectRatio="none" viewBox="0 0 2560 1200"><g mask="url(&quot;#SvgjsMask1042&quot;)" fill="none"><rect width="2560" height="1200" x="0" y="0" fill="rgba(2, 131, 249, 0.99)"></rect><path d="M1085.672,1136.404C1163.913,1137.218,1240.754,1104.139,1280.776,1036.904C1321.663,968.216,1317.585,882.665,1278.075,813.176C1238.087,742.847,1166.566,692.657,1085.672,693.763C1006.445,694.846,940.616,749.034,902.171,818.316C864.962,885.371,859.158,966.488,897.478,1032.914C935.82,1099.378,1008.945,1135.605,1085.672,1136.404" fill="rgba(129, 4, 197, 0.8)" class="triangle-float1"></path><path d="M1527.0607676155387 615.6031967031532L1347.585083179794 494.29629613483684 1331.0808082135195 682.9410222185119z" fill="rgba(129, 4, 197, 0.8)" class="triangle-float3"></path><path d="M145.93175391938513-61.1290915462243L29.262702691025083 125.58041960497945 367.66149503201075 207.22924087191763z" fill="rgba(129, 4, 197, 0.8)" class="triangle-float2"></path><path d="M1902.992,81.886C1935.326,82.818,1967.675,72.061,1985.796,45.266C2006.304,14.942,2014.779,-24.811,1996.664,-56.623C1978.403,-88.69,1939.866,-101.581,1902.992,-100.144C1868.691,-98.808,1837.283,-80.091,1821.163,-49.785C1805.935,-21.156,1810.949,13.176,1828.065,40.718C1844.187,66.66,1872.462,81.006,1902.992,81.886" fill="rgba(129, 4, 197, 0.8)" class="triangle-float1"></path><path d="M2616.3296906309747 1420.3697688778966L2753.58659643759 1112.0857109639314 2445.3025385236247 974.8288051573163 2308.0456327170095 1283.1128630712815z" fill="rgba(129, 4, 197, 0.8)" class="triangle-float3"></path><path d="M249.09 543.59 a390.2 390.2 0 1 0 780.4 0 a390.2 390.2 0 1 0 -780.4 0z" fill="rgba(129, 4, 197, 0.8)" class="triangle-float2"></path><path d="M2419.609,515.078C2478.07,515.513,2531.991,485.13,2562.441,435.223C2594.267,383.061,2603.173,317.336,2572.504,264.485C2541.935,211.807,2480.513,189.348,2419.609,189.084C2358.17,188.818,2294.846,209.783,2264.405,263.152C2234.184,316.134,2248.415,381.196,2280.408,433.127C2310.678,482.261,2361.901,514.649,2419.609,515.078" fill="rgba(129, 4, 197, 0.8)" class="triangle-float2"></path><path d="M1703 972.55 a332.78 332.78 0 1 0 665.56 0 a332.78 332.78 0 1 0 -665.56 0z" fill="rgba(129, 4, 197, 0.8)" class="triangle-float1"></path><path d="M281.024,876.279C327.561,879.441,378.022,863.552,399.936,822.376C420.998,782.802,398.743,737.498,375.182,699.359C353.211,663.793,322.821,630.711,281.024,629.885C238.051,629.036,200.236,657.485,180.19,695.505C161.423,731.099,167.555,772.775,187.156,807.916C207.366,844.148,239.632,873.466,281.024,876.279" fill="rgba(129, 4, 197, 0.8)" class="triangle-float3"></path><path d="M1967.070185848238 709.5747687810443L2139.9444386094933 625.2583619854082 1927.0327020354114 408.1051862413435z" fill="rgba(129, 4, 197, 0.8)" class="triangle-float1"></path><path d="M378.683459409001 869.2400167752431L258.13808282515186 1262.1864052609778 609.5833603121116 1187.4844054631826z" fill="rgba(129, 4, 197, 0.8)" class="triangle-float2"></path></g><defs><mask id="SvgjsMask1042"><rect width="2560" height="1200" fill="#ffffff"></rect></mask><style>
            @keyframes float1 {
                0%{transform: translate(0, 0)}
                50%{transform: translate(-10px, 0)}
                100%{transform: translate(0, 0)}
            }

            .triangle-float1 {
                animation: float1 5s infinite;
            }

            @keyframes float2 {
                0%{transform: translate(0, 0)}
                50%{transform: translate(-5px, -5px)}
                100%{transform: translate(0, 0)}
            }

            .triangle-float2 {
                animation: float2 4s infinite;
            }

            @keyframes float3 {
                0%{transform: translate(0, 0)}
                50%{transform: translate(0, -10px)}
                100%{transform: translate(0, 0)}
            }

            .triangle-float3 {
                animation: float3 6s infinite;
            }
        </style></defs></svg>